HIERARCHY
ROOT Hips
{
	OFFSET -3.958830 18.904000 13.208200
	CHANNELS 6 Xposition Yposition Zposition Zrotation Yrotation Xrotation 
	JOINT LHipJoint
	{
		OFFSET 0.000000 0.000000 0.000000
		CHANNELS 3 Zrotation Yrotation Xrotation
		JOINT LeftUpLeg
		{
			OFFSET 1.800000 -1.400000 0.085000
			CHANNELS 3 Zrotation Yrotation Xrotation
			JOINT LeftLeg
			{
				OFFSET 2.215000 -6.000000 0.000000
				CHANNELS 3 Zrotation Yrotation Xrotation
				JOINT LeftFoot
				{
					OFFSET 2.500000 -6.900000 0.000000
					CHANNELS 3 Zrotation Yrotation Xrotation
					JOINT LeftToeBase
					{
						OFFSET 0.200000 -0.500000 1.950000
						CHANNELS 3 Zrotation Yrotation Xrotation
						End Site
						{
							OFFSET 0.000000 0.000000 0.000000
						}
					}
				}
			}
		}
	}
	JOINT RHipJoint
	{
		OFFSET 0.000000 0.000000 0.000000
		CHANNELS 3 Zrotation Yrotation Xrotation
		JOINT RightUpLeg
		{
			OFFSET -1.800000 -1.400000 0.085000
			CHANNELS 3 Zrotation Yrotation Xrotation
			JOINT RightLeg
			{
				OFFSET -2.215000 -6.000000 0.000000
				CHANNELS 3 Zrotation Yrotation Xrotation
				JOINT RightFoot
				{
					OFFSET -2.500000 -6.900000 0.000000
					CHANNELS 3 Zrotation Yrotation Xrotation
					JOINT RightToeBase
					{
						OFFSET -0.200000 -0.500000 1.950000
						CHANNELS 3 Zrotation Yrotation Xrotation
						End Site
						{
							OFFSET 0.000000 0.000000 0.000000
						}
					}
				}
			}
		}
	}
	JOINT LowerBack
	{
		OFFSET 0.000000 0.000000 0.000000
		CHANNELS 3 Zrotation Yrotation Xrotation
		JOINT Spine
		{
			OFFSET -0.087000 1.940000 -0.288900
			CHANNELS 3 Zrotation Yrotation Xrotation
			JOINT Spine1
			{
				OFFSET 0.000000 1.950000 0.060000
				CHANNELS 3 Zrotation Yrotation Xrotation
				JOINT Neck
				{
					OFFSET 0.000000 0.000000 0.000000
					CHANNELS 3 Zrotation Yrotation Xrotation
					JOINT Neck1
					{
						OFFSET 0.000000 1.600000 0.340000
						CHANNELS 3 Zrotation Yrotation Xrotation
						JOINT Head
						{
							OFFSET 0.000000 1.667000 -0.240000
							CHANNELS 3 Zrotation Yrotation Xrotation
							End Site
							{
								OFFSET 0.000000 0.000000 0.000000
							}
						}
					}
				}
				JOINT LeftShoulder
				{
					OFFSET 0.000000 0.000000 0.000000
					CHANNELS 3 Zrotation Yrotation Xrotation
					JOINT LeftArm
					{
						OFFSET 2.700000 1.550000 -0.730000
						CHANNELS 3 Zrotation Yrotation Xrotation
						JOINT LeftForeArm
						{
							OFFSET 5.450000 0.000000 0.000000
							CHANNELS 3 Zrotation Yrotation Xrotation
							JOINT LeftHand
							{
								OFFSET 3.450000 0.000000 0.000000
								CHANNELS 3 Zrotation Yrotation Xrotation
								JOINT LeftHandIndex1
								{
									OFFSET 0.750000 0.000000 0.000000
									CHANNELS 3 Zrotation Yrotation Xrotation
									End Site
									{
										OFFSET 0.000000 0.000000 0.000000
									}
								}
							}
						}
					}
				}
				JOINT RightShoulder
				{
					OFFSET 0.000000 0.000000 0.000000
					CHANNELS 3 Zrotation Yrotation Xrotation
					JOINT RightArm
					{
						OFFSET -2.700000 1.550000 -0.730000
						CHANNELS 3 Zrotation Yrotation Xrotation
						JOINT RightForeArm
						{
							OFFSET -5.450000 0.000000 0.000000
							CHANNELS 3 Zrotation Yrotation Xrotation
							JOINT RightHand
							{
								OFFSET -3.450000 0.000000 0.000000
								CHANNELS 3 Zrotation Yrotation Xrotation
								JOINT RightHandIndex1
								{
									OFFSET -0.750000 0.000000 0.000000
									CHANNELS 3 Zrotation Yrotation Xrotation
									End Site
									{
										OFFSET 0.000000 0.000000 0.000000
									}
								}
							}
						}
					}
				}
			}
		}
	}
}
MOTION
Frames: 11
Frame Time: 0.016667
0.387400 16.102460 -2.463370 6.216753 -10.389952 -9.742184 -16.200237 11.032559 7.030861 46.003080 2.479647 -33.219907 -31.057417 29.000503 45.071955 2.132528 13.099027 0.253399 0.196280 0.009020 0.128900 18.127696 -7.028272 2.340299 -15.928675 10.909455 -30.205739 7.157888 -14.566073 57.031338 -1.363339 -8.857263 1.381600 -0.333330 -0.084530 0.184930 -2.294677 -5.307007 -9.909927 10.426358 -16.183479 71.450827 -6.118918 -3.117654 -9.577813 11.630299 -14.952337 -13.115580 -30.980076 7.594599 29.925464 -10.421630 -1.416470 -19.948130 -11.145130 7.280362 -2.391832 -54.721746 9.624600 -10.847019 13.983593 4.422521 1.327381 -3.565090 2.889868 0.417700 -0.328570 0.294350 0.203670 -11.755522 9.653814 10.898485 31.512690 -5.250629 -17.226268 -134.601049 28.193426 -80.531929 2.506691 -2.057199 0.191760 0.002480 -0.171220 0.148830 
0.387120 16.087270 -2.425520 5.435615 -10.156336 -8.714020 -16.175155 11.101043 6.891814 45.822473 2.874416 -32.264709 -30.269010 27.300920 42.540429 2.042024 12.705754 0.350020 0.174100 -0.025060 0.102060 18.138135 -6.978653 2.477401 -15.894792 11.395774 -30.638893 8.336872 -15.121146 56.659501 -1.377372 -8.901963 1.383122 -0.369160 -0.083270 0.176330 -2.345343 -5.354324 -9.900552 11.673474 -17.714486 70.907607 -7.326023 -3.383762 -12.269538 12.179584 -15.149664 -13.368901 -32.023927 8.533836 30.969467 -10.517630 -0.716600 -18.160570 -11.906416 8.422095 -2.776454 -54.206274 11.909724 -11.241404 13.416662 6.149133 1.615191 -3.569284 2.873660 0.420820 -0.341540 0.290390 0.211190 -12.155287 9.106559 11.265895 33.491317 -5.460904 -16.811278 -134.081242 27.434706 -76.688669 2.552757 -2.069710 0.197090 -0.013960 -0.170520 0.158860 
0.396220 16.047620 -2.339880 3.521506 -9.931961 -5.353989 -16.189522 11.290085 6.571657 44.956098 3.928511 -31.162784 -27.332079 23.212999 36.509385 1.783616 11.689527 0.606541 0.125990 -0.076470 0.021590 18.117392 -6.663520 2.871757 -16.029007 12.662588 -32.895637 11.420268 -16.523532 55.513144 -1.404150 -9.005778 1.389720 -0.426470 -0.049810 0.150000 -2.302410 -5.845163 -9.904021 14.573116 -20.219100 68.473654 -8.588349 -2.898149 -18.592167 12.752010 -15.941110 -13.602655 -35.033323 10.440196 32.399373 -9.346360 0.407610 -13.571470 -13.193135 11.940450 -3.779066 -53.911492 17.075697 -12.153401 13.700881 8.674254 2.231615 -3.591940 2.838861 0.405960 -0.349730 0.267600 0.237610 -12.063117 7.584623 11.583161 33.216354 -6.200533 -15.330733 -131.694797 25.015262 -63.990881 2.649890 -2.085566 0.204290 -0.031090 -0.165340 0.195400 
0.415560 15.997550 -2.258940 1.397882 -8.854884 -1.855215 -16.143811 11.475658 6.115121 43.083571 4.403955 -30.041674 -22.962829 18.423108 29.326687 1.436197 10.295044 0.981259 0.150100 -0.044940 0.005110 18.130478 -6.446083 3.349758 -16.358572 13.777771 -36.009380 14.142427 -18.063130 54.979182 -1.494806 -9.228267 1.342510 -0.427520 -0.044870 0.138490 -2.354754 -6.142514 -9.833408 19.838378 -23.112670 63.430938 -10.509479 -3.036004 -21.753095 12.426050 -16.567146 -13.404119 -37.245144 11.016406 33.721590 -7.244880 0.474400 -11.422350 -14.687661 13.697828 -4.087679 -53.497354 21.355515 -13.082893 11.681670 9.687872 2.085181 -3.570100 2.811506 0.404120 -0.370760 0.278490 0.278200 -10.223341 6.740317 11.253783 30.902172 -6.131486 -14.203377 -129.037190 18.801108 -45.194336 2.757762 -2.155628 0.222740 -0.041930 -0.203140 0.223660 
0.419190 15.956630 -2.196350 0.047921 -7.026979 0.374971 -16.052528 11.800643 5.569901 40.321368 4.022930 -28.655804 -18.090116 14.116075 22.523416 1.081849 8.751759 1.419436 0.188790 -0.001670 0.033380 18.133088 -6.449992 3.729451 -16.923748 14.120475 -37.997902 16.871621 -19.386406 53.858893 -1.565630 -9.361438 1.309009 -0.399680 -0.054720 0.124880 -2.415222 -6.380812 -9.701468 23.894396 -24.869203 58.129164 -11.896453 -3.503574 -22.400323 11.922173 -16.454999 -13.553624 -37.971332 11.050810 36.461767 -6.041590 0.522610 -10.198650 -16.038613 12.408286 -3.347650 -53.591900 24.159490 -13.633759 8.601080 12.944950 1.969780 -3.585269 2.762202 0.429700 -0.382820 0.299450 0.292560 -8.032463 7.877441 10.898710 29.470628 -5.554222 -14.186953 -128.273007 9.057481 -23.757794 2.861520 -2.261528 0.217130 -0.021690 -0.225070 0.215530 
0.420510 15.941130 -2.154200 -0.961554 -5.550144 1.618512 -15.900205 12.243129 4.904410 36.886428 3.522969 -27.163315 -12.425623 10.685154 17.159108 0.814094 7.180081 1.910854 0.215920 0.019620 0.082280 18.150879 -6.707571 4.007790 -16.601529 14.381893 -38.693616 18.210940 -19.628373 52.712861 -1.575819 -9.254901 1.330564 -0.379480 -0.075730 0.107620 -2.572661 -6.371772 -9.466377 27.318945 -26.386657 54.218282 -14.209376 -3.825727 -22.607938 11.337006 -16.093342 -13.863545 -38.027129 10.841854 39.342495 -4.799290 0.165730 -10.225220 -15.299247 10.860322 -2.177585 -52.640324 25.459789 -13.833475 2.572066 16.643891 0.979979 -3.594026 2.683690 0.468670 -0.405100 0.322490 0.280050 -7.729731 9.296292 10.492481 30.634049 -3.967760 -15.091391 -130.456957 -2.661528 0.653206 3.044485 -2.387428 0.200920 0.005540 -0.234870 0.192940 
0.402760 15.958090 -2.139630 -1.529426 -4.494729 2.643084 -15.822726 12.611742 4.469039 34.176606 3.203076 -26.444306 -8.347673 8.578466 13.251711 0.615740 6.131722 2.268122 0.187710 -0.011660 0.109420 18.129415 -6.831017 4.224731 -16.078521 14.833909 -39.276473 18.917947 -19.358372 51.636445 -1.542921 -9.057028 1.384601 -0.371410 -0.060760 0.088460 -2.594516 -6.569722 -9.374254 28.192088 -26.096634 52.681081 -15.269916 -3.110876 -23.525489 11.055171 -15.090883 -13.701535 -36.051010 9.615359 42.588933 -5.288970 -0.109300 -11.085690 -14.868742 9.311958 -1.518012 -50.287498 24.951108 -13.165715 -2.079867 22.348004 -0.098765 -3.668413 2.579974 0.510370 -0.391960 0.327390 0.244310 -7.536410 10.408820 9.654301 30.422015 -2.700660 -16.273128 -134.973448 -14.199063 27.852929 3.245288 -2.419919 0.145870 0.075380 -0.196210 0.158560 
0.362830 16.003930 -2.150970 -1.534018 -3.218054 3.849756 -15.797320 12.827784 4.301507 32.035077 2.687331 -27.769550 -6.211659 7.554316 12.159353 0.581676 5.491800 2.475971 0.252280 0.051680 0.152400 18.097257 -6.888311 4.352749 -15.578260 14.835779 -40.063371 18.818903 -18.568725 50.376913 -1.500744 -8.765829 1.453901 -0.361280 -0.080690 0.165000 -2.546162 -6.795615 -9.370262 27.025726 -25.001867 52.485586 -14.942929 -1.963409 -25.606074 10.674084 -13.786391 -13.747343 -33.577311 8.976400 45.160617 -3.903570 -0.142930 -8.169860 -13.760014 7.887910 -0.728302 -48.578891 23.617529 -12.380954 -4.060842 27.834281 -0.643455 -3.716652 2.702684 0.488350 -0.366150 0.368550 0.274390 -7.429817 11.183024 9.053692 29.461351 -3.871038 -17.497271 -140.259720 -22.607089 51.923007 3.419370 -2.532827 0.214130 -0.004770 -0.246510 0.170370 
0.312110 16.074490 -2.177720 -1.272091 -2.517921 4.403388 -15.825395 12.921099 4.356654 31.152560 2.192532 -29.614958 -6.544600 7.708850 14.111728 0.583333 5.480768 2.469596 0.226340 0.029640 0.120660 18.058472 -6.909868 4.323638 -14.235809 14.740831 -40.078414 17.266547 -17.203213 49.560155 -1.381444 -8.352773 1.581050 -0.389200 -0.063930 0.191920 -2.442492 -6.991972 -9.393844 24.418247 -23.171387 54.055734 -12.900694 -1.154003 -26.989887 9.940289 -13.346216 -13.790069 -32.740378 8.240657 44.948897 -2.379660 -0.943950 -6.763330 -12.182584 7.232281 0.415276 -50.907314 23.630780 -12.366188 -2.138506 23.131815 -0.006801 -3.716978 2.750397 0.456520 -0.337830 0.353790 0.269090 -7.064922 11.559831 8.244415 26.897218 -4.004803 -18.077300 -146.287597 -31.822514 79.931988 3.566782 -2.522857 0.238330 -0.047630 -0.233530 0.183100 
0.252070 16.169050 -2.231980 -0.435850 -2.080601 4.124446 -15.822575 12.824957 4.555037 30.769384 1.352844 -31.869882 -8.762866 8.812881 19.011533 0.616729 5.990417 2.279896 0.207110 -0.005850 0.117320 18.065576 -7.045996 4.183532 -13.149979 14.407356 -39.291989 15.355071 -15.561366 48.608865 -1.257260 -7.826518 1.738039 -0.426930 -0.079360 0.194330 -2.456664 -6.763764 -9.396451 20.786850 -21.174479 56.537481 -10.663466 -0.917142 -27.231156 8.973257 -13.071983 -14.350213 -33.031389 8.203655 44.554575 0.315330 -1.946460 -7.071010 -8.877389 5.458717 2.396851 -55.468473 23.290495 -13.345144 -2.202926 17.039420 -0.075474 -3.634938 2.758953 0.483050 -0.359490 0.362320 0.250000 -7.831101 12.592969 7.738472 26.258224 -3.859984 -19.315348 -154.687729 -38.287110 106.033589 3.685683 -2.454122 0.244180 -0.072890 -0.226410 0.174160 
0.205100 16.273520 -2.295020 -0.065538 -2.975099 3.293270 -15.807140 12.460071 4.939653 31.775724 0.707781 -33.083778 -12.923017 10.998933 24.358996 0.752739 7.112183 1.895910 0.179570 -0.019530 0.103630 18.122505 -7.174786 3.983334 -11.298158 14.543370 -37.849162 12.978603 -13.588315 47.696244 -1.136775 -7.204726 1.945077 -0.443570 -0.099040 0.148580 -2.573560 -6.119926 -9.464912 17.478446 -18.955365 59.493644 -9.313318 -0.620977 -26.063205 8.075735 -12.861581 -14.881067 -33.465988 8.187394 44.652781 3.166140 -3.293930 -9.006640 -6.411365 3.476900 4.132383 -59.041553 22.525865 -14.494888 -2.686005 9.526164 -0.321007 -3.493837 2.709842 0.520190 -0.402460 0.379860 0.233590 -8.146094 13.712133 7.437310 25.472979 -3.631132 -20.467369 -163.604964 -40.840059 127.038359 3.760081 -2.333232 0.224520 -0.041370 -0.221620 0.168770 
